<svg viewBox="0 0 191 191" fill="none" xmlns="http://www.w3.org/2000/svg">
  <path
    d="M150.168 0.104136C165.023 -1.1955 178.119 9.79324 179.418 24.6482L190.4 150.169C191.7 165.024 180.711 178.12 165.856 179.419L40.3353 190.401C25.4803 191.7 12.3845 180.712 11.0848 165.857L0.103205 40.3362C-1.19643 25.4813 9.79231 12.3854 24.6473 11.0858L150.168 0.104136ZM65.9691 48.7517L56.3082 34.867L49.8815 39.3955L59.5426 53.2812L51.6596 51.4838L49.9351 59.1908L62.4301 62.0384C57.5358 69.0275 57.691 78.795 63.5999 85.6503L121.103 152.363C125.03 156.919 131.752 157.746 136.674 154.278C141.664 150.762 143.155 143.995 140.104 138.706L120.09 104.008L112.892 109.08C109.334 111.587 104.435 110.724 101.95 107.152C99.465 103.581 100.335 98.6535 103.893 96.1463L111.255 90.9576C111.568 90.7367 111.892 90.5419 112.224 90.3728L107.102 81.4924L93.0431 91.4C89.4852 93.9071 84.5861 93.044 82.101 89.4723C79.6161 85.9007 80.4859 80.9733 84.0437 78.4662L99.2052 67.8025L96.0563 62.3432C91.3494 54.1834 81.6477 50.9074 73.2325 53.899L75.6923 34.4053L67.9061 33.4004L65.9691 48.7517Z"
    fill="#7fd161" />
</svg>