<svg viewBox="0 0 641 187" fill="none" xmlns="http://www.w3.org/2000/svg">
  <path
    d="M71.0391 185.52C25.4391 185.52 -0.000937253 161.52 -0.000937253 142.32C-0.000937253 133.92 4.55906 127.68 14.3991 127.68C38.3991 128.16 31.9191 171.84 72.4791 171.84C89.2791 171.84 100.319 162.24 100.319 147.6C100.319 96.4801 3.35906 131.52 3.11906 60.4801C3.11906 31.6801 27.1191 10.5601 66.7191 10.5601C107.039 10.5601 133.679 32.1601 133.439 52.0801C133.439 61.2001 128.399 66.9601 118.079 66.9601C92.1591 66.9601 101.039 24.2401 65.9991 24.2401C47.7591 24.2401 38.8791 35.2801 38.8791 48.9601C38.8791 100.56 135.839 67.4401 135.839 136.56C135.839 167.76 105.839 185.52 71.0391 185.52ZM277.685 78.0001C277.685 82.5601 267.605 85.4401 267.605 97.2001V160.08C267.605 170.16 276.965 172.56 276.965 178.32V179.04C276.965 181.68 275.285 183.12 272.165 183.12H242.645C239.525 183.12 237.125 180.96 237.125 177.84V172.08C229.685 180.96 217.925 185.52 205.445 185.52C176.165 185.52 149.045 163.92 149.045 125.28C149.045 89.7601 174.965 65.5201 205.685 65.5201C219.365 65.5201 229.685 70.3201 237.125 77.7601V72.9601C237.125 68.4001 241.205 65.7601 247.445 66.9601L272.645 71.2801C276.005 72.0001 277.685 73.9201 277.685 77.2801V78.0001ZM213.365 175.2C223.205 175.2 233.765 166.56 233.765 149.52V107.28C233.765 90.4801 221.765 75.8401 207.605 75.8401C192.965 75.8401 183.845 88.8001 183.365 111.12C182.405 137.52 193.445 174.48 213.365 175.2ZM297.065 183.12C293.705 183.12 291.545 181.44 291.545 179.04V178.08C291.545 172.08 300.905 170.16 300.905 160.08V42.0001C300.905 31.2001 291.545 28.8001 291.545 23.7601V22.8001C291.545 20.4001 293.465 19.2001 296.345 18.0001L326.585 3.1201C332.825 0.000114441 336.425 3.36011 336.425 7.4401V160.08C336.425 170.16 346.745 172.08 346.745 178.08V179.04C346.745 181.44 344.345 183.12 341.225 183.12H297.065ZM477.13 158.64C477.13 177.6 488.65 168.72 488.65 177.6C488.65 183.12 480.73 184.56 467.29 184.56C453.61 184.56 446.65 180.72 445.93 168.96C439.45 179.52 427.69 185.52 411.13 185.52C386.41 185.52 366.49 168.48 366.49 135.6V95.0401C366.49 84.4801 357.13 82.0801 357.13 76.8001V76.0801C357.13 73.6801 359.05 71.5201 362.17 71.0401L392.41 66.4801C398.65 65.7601 402.25 66.7201 402.25 70.8001L401.53 139.2C401.53 161.52 408.25 171.84 421.45 171.84C432.97 171.84 442.09 160.8 442.09 143.76V95.0401C442.09 84.4801 432.49 82.0801 432.49 76.8001V76.0801C432.49 73.6801 434.41 71.5201 437.29 71.0401L468.01 66.4801C474.25 65.7601 477.13 66.7201 477.13 70.8001V158.64ZM547.207 185.52C525.367 185.52 510.967 171.36 510.967 144V81.8401H499.687C496.807 81.8401 494.887 79.9201 494.887 77.0401V72.9601C494.887 69.8401 496.567 67.9201 499.687 67.9201H505.687C519.127 67.9201 528.487 58.3201 531.127 44.1601C531.847 40.5601 534.007 38.4001 536.647 38.4001H541.447C544.807 38.4001 546.727 40.5601 546.727 44.1601L546.967 67.9201H574.567C577.207 67.9201 579.367 70.0801 579.367 72.9601V77.0401C579.367 79.9201 577.207 81.8401 574.567 81.8401H546.967V144.48C546.967 154.08 552.247 159.84 559.207 159.84C568.807 159.84 573.607 154.56 575.527 149.04C578.407 144.96 584.167 145.92 584.167 150.48C584.167 167.76 571.207 185.52 547.207 185.52ZM610.493 129.36C603.293 92.1601 599.933 41.5201 599.693 22.8001C599.693 5.76011 636.413 5.2801 636.413 22.5601C636.173 42.4801 633.053 92.1601 624.893 129.36C623.693 134.64 611.933 134.4 610.493 129.36ZM618.173 186.24C606.173 186.24 596.093 179.76 596.093 166.32C596.093 152.64 606.173 146.16 618.173 146.16C629.933 146.16 640.013 152.64 640.013 166.32C640.013 179.76 629.933 186.24 618.173 186.24Z"
    style="fill: var(--logo-dark-color)" />
</svg>