<svg viewBox="0 0 915 326" fill="none" xmlns="http://www.w3.org/2000/svg">
  <path
    d="M335.523 242.4C289.923 242.4 264.483 218.4 264.483 199.2C264.483 190.8 269.043 184.56 278.883 184.56C302.883 185.04 296.403 228.72 336.963 228.72C353.763 228.72 364.803 219.12 364.803 204.48C364.803 153.36 267.843 188.4 267.603 117.36C267.603 88.56 291.603 67.44 331.203 67.44C371.523 67.44 398.163 89.04 397.923 108.96C397.923 118.08 392.883 123.84 382.563 123.84C356.643 123.84 365.523 81.12 330.483 81.12C312.243 81.12 303.363 92.16 303.363 105.84C303.363 157.44 400.323 124.32 400.323 193.44C400.323 224.64 370.323 242.4 335.523 242.4ZM542.169 134.88C542.169 139.44 532.089 142.32 532.089 154.08V216.96C532.089 227.04 541.449 229.44 541.449 235.2V235.92C541.449 238.56 539.769 240 536.649 240H507.129C504.009 240 501.609 237.84 501.609 234.72V228.96C494.169 237.84 482.409 242.4 469.929 242.4C440.649 242.4 413.529 220.8 413.529 182.16C413.529 146.64 439.449 122.4 470.169 122.4C483.849 122.4 494.169 127.2 501.609 134.64V129.84C501.609 125.28 505.689 122.64 511.929 123.84L537.129 128.16C540.489 128.88 542.169 130.8 542.169 134.16V134.88ZM477.849 232.08C487.689 232.08 498.249 223.44 498.249 206.4V164.16C498.249 147.36 486.249 132.72 472.089 132.72C457.449 132.72 448.329 145.68 447.849 168C446.889 194.4 457.929 231.36 477.849 232.08ZM561.549 240C558.189 240 556.029 238.32 556.029 235.92V234.96C556.029 228.96 565.389 227.04 565.389 216.96V98.88C565.389 88.08 556.029 85.68 556.029 80.64V79.68C556.029 77.28 557.949 76.08 560.829 74.88L591.069 60C597.309 56.88 600.909 60.24 600.909 64.32V216.96C600.909 227.04 611.229 228.96 611.229 234.96V235.92C611.229 238.32 608.829 240 605.709 240H561.549ZM741.615 215.52C741.615 234.48 753.135 225.6 753.135 234.48C753.135 240 745.215 241.44 731.775 241.44C718.095 241.44 711.135 237.6 710.415 225.84C703.935 236.4 692.175 242.4 675.615 242.4C650.895 242.4 630.975 225.36 630.975 192.48V151.92C630.975 141.36 621.615 138.96 621.615 133.68V132.96C621.615 130.56 623.535 128.4 626.655 127.92L656.895 123.36C663.135 122.64 666.735 123.6 666.735 127.68L666.015 196.08C666.015 218.4 672.735 228.72 685.935 228.72C697.455 228.72 706.575 217.68 706.575 200.64V151.92C706.575 141.36 696.975 138.96 696.975 133.68V132.96C696.975 130.56 698.895 128.4 701.775 127.92L732.495 123.36C738.735 122.64 741.615 123.6 741.615 127.68V215.52ZM811.691 242.4C789.851 242.4 775.451 228.24 775.451 200.88V138.72H764.171C761.291 138.72 759.371 136.8 759.371 133.92V129.84C759.371 126.72 761.051 124.8 764.171 124.8H770.171C783.611 124.8 792.971 115.2 795.611 101.04C796.331 97.44 798.491 95.28 801.131 95.28H805.931C809.291 95.28 811.211 97.44 811.211 101.04L811.451 124.8H839.051C841.691 124.8 843.851 126.96 843.851 129.84V133.92C843.851 136.8 841.691 138.72 839.051 138.72H811.451V201.36C811.451 210.96 816.731 216.72 823.691 216.72C833.291 216.72 838.091 211.44 840.011 205.92C842.891 201.84 848.651 202.8 848.651 207.36C848.651 224.64 835.691 242.4 811.691 242.4ZM874.978 186.24C867.778 149.04 864.418 98.4 864.178 79.68C864.178 62.64 900.898 62.16 900.898 79.44C900.658 99.36 897.538 149.04 889.378 186.24C888.178 191.52 876.418 191.28 874.978 186.24ZM882.658 243.12C870.658 243.12 860.578 236.64 860.578 223.2C860.578 209.52 870.658 203.04 882.658 203.04C894.418 203.04 904.498 209.52 904.498 223.2C904.498 236.64 894.418 243.12 882.658 243.12Z"
    style="fill: var(--logo-dark-color)" />
  <path
    d="M152.418 67.8527C167.273 66.553 180.369 77.5418 181.668 92.3967L192.65 217.917C193.95 232.772 182.961 245.868 168.106 247.168L42.5853 258.149C27.7303 259.449 14.6345 248.46 13.3348 233.605L2.35321 108.085C1.05357 93.2298 12.0423 80.1339 26.8973 78.8343L152.418 67.8527ZM68.2191 116.5L58.5582 102.616L52.1315 107.144L61.7926 121.03L53.9096 119.232L52.1851 126.939L64.6801 129.787C59.7858 136.776 59.941 146.544 65.8499 153.399L123.353 220.112C127.28 224.668 134.002 225.494 138.924 222.027C143.914 218.51 145.405 211.744 142.354 206.454L122.34 171.756L115.142 176.829C111.584 179.336 106.685 178.473 104.2 174.901C101.715 171.329 102.585 166.402 106.143 163.895L113.505 158.706C113.818 158.485 114.142 158.29 114.474 158.121L109.352 149.241L95.2931 159.149C91.7352 161.656 86.8361 160.792 84.351 157.221C81.8661 153.649 82.7359 148.722 86.2937 146.215L101.455 135.551L98.3063 130.092C93.5994 121.932 83.8977 118.656 75.4825 121.647L77.9423 102.154L70.1561 101.149L68.2191 116.5Z"
    style="fill: var(--logo-light-color)" />
</svg>